<svg xmlns="http://www.w3.org/2000/svg" width="23.096" height="23.509" viewBox="0 0 23.096 23.509">
  <defs>
    <style>
      .cls-1 {
        fill: #2046b4;
        stroke: rgba(0,0,0,0);
        stroke-miterlimit: 10;
      }
    </style>
  </defs>
  <path id="Union_26" data-name="Union 26" class="cls-1" d="M19.218,22.116C18.073,14.362,15.336,9.041,11.087,6.3a.426.426,0,0,1-.128-.587.421.421,0,0,1,.583-.128c4.464,2.878,7.328,8.4,8.509,16.4a.424.424,0,0,1-.355.483.571.571,0,0,1-.063,0A.421.421,0,0,1,19.218,22.116ZM4.639,9.425A42.093,42.093,0,0,0,.389,1.04L0,.485.668.376c8.88-1.436,19.209,1.183,20.86,8.865a7.761,7.761,0,0,1-.725,5.35.422.422,0,0,1-.572.174.427.427,0,0,1-.173-.575A6.915,6.915,0,0,0,20.7,9.424C19.2,2.434,9.8-.03,1.465,1.115A45.4,45.4,0,0,1,5.42,9.1c2.288,5.555,3.941,9.566,10.289,8.229l.436-.1a.425.425,0,0,1,.2.827l-.454.1a11.858,11.858,0,0,1-2.435.276C8.35,18.434,6.612,14.215,4.639,9.425Z" transform="translate(0.867 0.531)"/>
</svg>
